<svg id="Layer_1" enable-background="new 0 0 495.974 495.974" height="512" viewBox="0 0 495.974 495.974" width="512" xmlns="http://www.w3.org/2000/svg"><path d="m282.664 169.525c11.059-6.049 11.1-22.005 0-28.076l-37.46-20.486c-27.57-15.08-50.113-37.623-65.192-65.193l-20.488-37.46c-6.048-11.059-22.005-11.098-28.075 0l-20.488 37.46c-15.079 27.57-37.622 50.113-65.191 65.192l-37.46 20.487c-11.059 6.049-11.1 22.005 0 28.076l37.46 20.486c27.57 15.08 50.113 37.623 65.192 65.193l20.488 37.46c6.049 11.059 22.005 11.098 28.075 0l20.488-37.46c15.079-27.57 37.622-50.113 65.191-65.192zm-130.727 70.324-6.45 11.794c-9.558-17.477-30.312-60.144-84.362-89.707l-11.793-6.449c17.322-9.474 60.108-30.247 89.705-84.362l6.45-11.794c9.558 17.477 30.312 60.144 84.362 89.707l11.793 6.449c-17.322 9.474-60.108 30.247-89.705 84.362zm265.727 130.6-16.638-9.099c-38.393-21-51.844-50.554-62.501-70.041-6.05-11.059-22.004-11.098-28.075 0-10.484 19.169-23.963 48.962-62.501 70.04l-16.639 9.1c-11.059 6.049-11.1 22.005 0 28.076 19.167 10.481 48.962 23.962 70.04 62.501l9.1 16.639c6.05 11.059 22.004 11.098 28.075 0l9.1-16.639c20.998-38.393 50.553-51.844 70.04-62.501 11.059-6.049 11.099-22.005-.001-28.076zm-93.177 66.788c-13.372-21.38-31.369-39.377-52.75-52.75 21.38-13.373 39.378-31.37 52.75-52.75 13.372 21.38 31.369 39.377 52.75 52.75-21.38 13.373-39.378 31.37-52.75 52.75zm-198.823-45.288c-11.245-6.149-27.592-13.469-39.211-34.714 0-.101.553 1.011-5.428-9.926-6.05-11.059-22.004-11.098-28.075 0l-5.428 9.926c-11.565 21.147-27.746 28.444-39.211 34.714-11.059 6.049-11.1 22.005 0 28.076 11.335 6.198 27.605 13.491 39.211 34.715l5.428 9.925c6.05 11.059 22.004 11.098 28.075 0l5.428-9.926c11.565-21.147 27.746-28.444 39.211-34.714 11.06-6.049 11.1-22.005 0-28.076zm-58.677 34.153c-5.767-7.586-12.529-14.348-20.116-20.115 7.588-5.768 14.348-12.528 20.116-20.115 5.767 7.586 12.529 14.348 20.116 20.115-7.588 5.767-14.349 12.528-20.116 20.115zm420.677-257.153c-11.245-6.149-27.592-13.469-39.211-34.714 0-.101.553 1.011-5.428-9.926-6.05-11.059-22.004-11.098-28.075 0l-5.428 9.926c-11.566 21.147-27.746 28.444-39.211 34.714-11.059 6.049-11.1 22.005 0 28.076 11.335 6.198 27.605 13.491 39.211 34.715l5.428 9.925c6.05 11.059 22.004 11.098 28.075 0l5.428-9.926c11.565-21.147 27.746-28.444 39.211-34.714 11.06-6.049 11.1-22.005 0-28.076zm-58.677 34.153c-5.767-7.586-12.529-14.348-20.116-20.115 7.588-5.768 14.348-12.528 20.116-20.115 5.767 7.586 12.529 14.348 20.116 20.115-7.588 5.767-14.349 12.528-20.116 20.115z"/></svg>